<svg width="16" height="16" viewBox="0 0 16 16" fill="none" xmlns="http://www.w3.org/2000/svg">
<g clip-path="url(#clip0_378_16)">
<path d="M7.99466 16.0003C7.942 16.0003 7.88866 15.9877 7.84066 15.9623L0.179333 11.9623C0.0693333 11.905 0 11.791 0 11.667V4.16699C0 4.05165 0.06 3.94432 0.158 3.88365C0.256 3.82299 0.379333 3.81765 0.482 3.86899L8.14333 7.70232C8.256 7.75899 8.32733 7.87432 8.32733 8.00032V15.667C8.32733 15.7837 8.26666 15.8917 8.16667 15.9523C8.11467 15.9843 8.05466 16.0003 7.99466 16.0003ZM0.666667 11.465L7.66133 15.117V8.20632L0.666667 4.70632V11.465Z" fill="black"/>
<path d="M8.00521 15.9998C7.94521 15.9998 7.88521 15.9838 7.83254 15.9518C7.73321 15.8912 7.67188 15.7832 7.67188 15.6665V7.99984C7.67188 7.87384 7.74321 7.75851 7.85588 7.70184L15.5172 3.86851C15.6192 3.81651 15.7432 3.82184 15.8412 3.88317C15.9399 3.94384 15.9999 4.05117 15.9999 4.16651V11.6665C15.9999 11.7905 15.9305 11.9045 15.8205 11.9618L8.15921 15.9618C8.11121 15.9872 8.05788 15.9998 8.00521 15.9998ZM8.33854 8.20584V15.1165L15.3332 11.4645V4.70584L8.33854 8.20584ZM15.6665 11.6665H15.6732H15.6665Z" fill="black"/>
<path d="M0.33305 4.50064C0.210383 4.50064 0.0930497 4.43331 0.034383 4.31664C-0.0482837 4.15198 0.0190496 3.95198 0.183716 3.86931L7.85572 0.0359766C7.94972 -0.0106901 8.06038 -0.0106901 8.15372 0.0359766L15.8151 3.86931C15.9797 3.95198 16.0464 4.15198 15.9644 4.31664C15.8817 4.48131 15.6824 4.54731 15.5171 4.46598L8.00505 0.706643L0.482383 4.46531C0.434383 4.48931 0.383716 4.50064 0.33305 4.50064Z" fill="black"/>
<path d="M12 9.99978C11.816 9.99978 11.6666 9.85045 11.6666 9.66645V6.20578L4.18929 2.46445C4.02462 2.38245 3.95796 2.18178 4.04062 2.01712C4.12329 1.85245 4.32329 1.78645 4.48796 1.86778L12.1493 5.70112C12.262 5.75845 12.3333 5.87378 12.3333 5.99978V9.66645C12.3333 9.85045 12.184 9.99978 12 9.99978Z" fill="black"/>
</g>
<defs>
<clipPath id="clip0_378_16">
<rect width="16" height="16" fill="white"/>
</clipPath>
</defs>
</svg>
