<svg width="16" height="16" viewBox="0 0 16 16" fill="none" xmlns="http://www.w3.org/2000/svg">
<path d="M14.0769 6.07412H12.8573V4.88103C12.8571 2.18528 10.6793 0.00021875 8.00001 0C5.3207 0.00021875 3.13664 2.18528 3.13642 4.881V6.07409H1.92304C1.47742 6.07409 1.11279 6.44097 1.11279 6.88941V15.1847C1.11279 15.6332 1.47739 16 1.92304 16H14.077C14.5226 16 14.8872 15.6331 14.8872 15.1847V6.88944C14.8872 6.44094 14.5226 6.07412 14.0769 6.07412ZM3.74411 4.881C3.74432 3.70106 4.23107 2.63559 4.99942 1.86197C5.76839 1.08897 6.82717 0.611719 8.00004 0.611531C9.1727 0.61175 10.2317 1.08897 11.0005 1.86197C11.769 2.63559 12.2495 3.70106 12.2497 4.881V6.07409H3.74411V4.881ZM14.077 15.3885H1.92304C1.81326 15.3885 1.72048 15.2951 1.72048 15.1847V6.88944C1.72048 6.77903 1.81326 6.68566 1.92304 6.68566H14.077C14.1867 6.68566 14.2795 6.77884 14.2795 6.88944V15.1847H14.2795C14.2795 15.2951 14.1867 15.3885 14.077 15.3885Z" fill="black"/>
<path d="M8 9.27344C7.21666 9.27344 6.58203 9.91212 6.58203 10.7001C6.58203 11.3832 7.05887 11.9532 7.69616 12.0932V13.5535C7.69616 13.7224 7.83228 13.8592 8 13.8592C8.16772 13.8592 8.30384 13.7224 8.30384 13.5535V12.0932C8.94109 11.9532 9.41797 11.3829 9.41797 10.7001C9.41794 9.91228 8.78331 9.27344 8 9.27344ZM8 11.5156C7.55313 11.5156 7.18975 11.1497 7.18975 10.7003C7.18975 10.2508 7.55316 9.88497 8 9.88497C8.44687 9.88497 8.81025 10.2508 8.81025 10.7003C8.81025 11.1497 8.44684 11.5156 8 11.5156Z" fill="black"/>
</svg>
