<svg width="16" height="14" viewBox="0 0 16 14" fill="none" xmlns="http://www.w3.org/2000/svg">
<path d="M2.13942 5.65934L2.18642 5.7181L2.20108 5.64429C2.83349 2.45987 5.64751 0.050625 9.01569 0.050625C12.8474 0.050625 15.965 3.16824 15.965 6.99995C15.965 10.82 12.8664 13.9303 9.05069 13.9492V12.9447C12.3125 12.9258 14.9605 10.2661 14.9605 6.99995C14.9605 3.72214 12.2935 1.05513 9.01569 1.05513C6.04854 1.05513 3.5902 3.24178 3.14813 6.0866L3.13772 6.1536L3.19837 6.12328L5.53582 4.9548L5.98535 5.85336L2.79323 7.44944C2.72133 7.48511 2.64448 7.5022 2.56862 7.5022C2.41994 7.5022 2.27427 7.4359 2.17633 7.31382L0.0491914 4.6549L0.833724 4.02708L2.13942 5.65934Z" fill="black" stroke="white" stroke-width="0.07"/>
</svg>
